:SAMPLES-PER-SECOND 30
:FULLY-SPECIFIED
:DEGREES
463
root  -42.0603 40.2936 0.307953 -64.5277 -87.833 72.2584
RightUpLeg  -26.6776 -23.664 0.736211
RightLeg  18.0537 -13.3681 -0.0506674
RightFoot  0.386085 0.62977 -6.09625
RightToes  2.91037e-010 0 -3.6325e-017
Spine  36.3578 -2.37295 4.83409
Spine1  10.869 -0.390875 -3.58545
HEad  -6.5495 -3.20731 2.88756
LeftShoulder1  11.2856 -18.191 -45.3395
LeftArm  -23.8151 -19.4362 -2.70111
LeftForeArm  26.9572 -3.28002 -3.00626
LeftHand  -0.244104 0.0205437 5.32207
RightShoulder  6.90297 12.5142 37.0841
RightArm  -25.3733 7.66232 8.09695
RightForeArm  -6.90731 4.61278 3.59426
RightHand  -1.53833 4.81393 -17.6531
LeftUpLeg  -24.4808 19.5089 -7.27657
LeftLeg  24.7092 1.76869 1.27751
LeftFoot  -4.10186 -0.0247685 0.82799
LeftToes  -1.10052e-010 1.3781e-010 -2.1811e-011
464
root  -41.7466 40.0708 0.109775 -41.0116 -87.9259 50.7166
RightUpLeg  -30.8499 -26.5335 4.07749
RightLeg  19.4553 -10.9151 -0.378064
RightFoot  0.0924111 0.63025 -6.27529
RightToes  2.91037e-010 0 -3.6325e-017
Spine  40.6277 -2.68259 6.09892
Spine1  11.3498 -0.228495 -3.47764
HEad  -13.1496 -4.2996 3.67218
LeftShoulder1  11.6339 -19.5235 -43.9499
LeftArm  -25.2322 -27.1422 -5.81453
LeftForeArm  28.2755 -2.65812 -3.18203
LeftHand  -0.244104 0.0205437 5.32207
RightShoulder  7.10616 13.2294 36.4654
RightArm  -26.8438 13.9972 10.2627
RightForeArm  -6.01514 3.8546 3.53948
RightHand  -1.48327 4.85985 -16.9694
LeftUpLeg  -31.1779 19.359 -7.62993
LeftLeg  30.5066 2.19823 1.73224
LeftFoot  -2.18084 0.124568 -1.38691
LeftToes  -1.10052e-010 1.3781e-010 -2.1811e-011
465
root  -41.4713 39.9221 -0.0691766 -35.6147 -87.7085 47.5085
RightUpLeg  -35.119 -28.7044 7.2604
RightLeg  19.912 -8.50226 -0.255119
RightFoot  0.539524 0.782082 -7.45637
RightToes  2.91037e-010 0 -3.6325e-017
Spine  45.1283 -2.713 6.06566
Spine1  11.8866 -0.26132 -2.73305
HEad  -19.8281 -4.80955 3.93796
LeftShoulder1  11.5647 -20.7146 -41.3557
LeftArm  -27.1012 -34.5104 -8.66705
LeftForeArm  28.5286 -2.61436 -3.12253
LeftHand  -0.244104 0.0205437 5.32207
RightShoulder  6.97602 13.9616 33.9804
RightArm  -28.7861 21.6766 12.3817
RightForeArm  -5.41318 2.49034 3.31162
RightHand  -1.44497 4.89858 -16.4884
LeftUpLeg  -36.3123 19.6617 -8.87652
LeftLeg  31.3477 1.76158 1.51257
LeftFoot  -1.3259 0.32218 -3.6063
LeftToes  -1.10052e-010 1.3781e-010 -2.1811e-011
466
root  -41.3057 39.7809 -0.182383 -40.7599 -87.6494 55.1536
RightUpLeg  -40.0906 -30.8885 11.2025
RightLeg  20.4969 -5.22147 -0.224047
RightFoot  0.928186 0.950218 -8.76229
RightToes  2.91037e-010 0 -3.6325e-017
Spine  48.5414 -2.50449 5.79574
Spine1  13.705 -0.148454 -1.73131
HEad  -26.2018 -5.38531 3.70883
LeftShoulder1  11.5869 -22.105 -38.965
LeftArm  -30.1047 -42.0724 -9.39721
LeftForeArm  29.264 -2.47765 -2.80244
LeftHand  -0.244104 0.0205437 5.32207
RightShoulder  6.68971 14.6817 30.7981
RightArm  -31.5898 30.2721 12.6316
RightForeArm  -5.19331 0.753014 2.93246
RightHand  -1.4106 5.11214 -15.7926
LeftUpLeg  -39.7846 20.366 -10.9311
LeftLeg  27.7929 0.986367 0.905281
LeftFoot  -1.25222 0.291826 -3.22781
LeftToes  -1.10052e-010 1.3781e-010 -2.1811e-011
467
root  -41.2646 39.5397 -0.186967 -54.4729 -88.334 71.653
RightUpLeg  -45.8352 -32.064 16.0858
RightLeg  22.0722 -1.79552 -0.675347
RightFoot  0.607124 0.960616 -9.10923
RightToes  2.91037e-010 0 -3.6325e-017
Spine  51.4414 -2.46404 6.31006
Spine1  15.1167 0.511773 -1.6854
HEad  -31.4072 -6.3088 3.37676
LeftShoulder1  11.6259 -23.5645 -36.708
LeftArm  -34.0218 -49.2348 -7.83833
LeftForeArm  30.2553 -1.76828 -2.40451
LeftHand  -0.244104 0.0205437 5.32207
RightShoulder  6.26477 15.0023 27.8068
RightArm  -35.4523 38.2795 10.7713
RightForeArm  -4.61361 -0.107509 2.51913
RightHand  -1.23628 4.95024 -14.0855
LeftUpLeg  -43.0528 21.6244 -13.1967
LeftLeg  24.2883 0.716251 0.68207
LeftFoot  -1.08455 -0.0508808 0.633639
LeftToes  -1.10052e-010 1.3781e-010 -2.1811e-011
468
root  -41.2997 39.2124 -0.123876 -94.4751 -89.1377 114.603
RightUpLeg  -50.4411 -29.9729 18.5438
RightLeg  24.2932 -1.79252 -1.16205
RightFoot  0.0248126 0.90079 -9.02329
RightToes  2.91037e-010 0 -3.6325e-017
Spine  55.3657 -2.86837 6.73771
Spine1  13.8419 1.08942 -2.46822
HEad  -34.695 -6.5608 3.08876
LeftShoulder1  11.2996 -24.1067 -34.721
LeftArm  -38.5071 -54.7712 -3.92656
LeftForeArm  29.7546 -1.18781 -2.26291
LeftHand  -0.244104 0.0205437 5.32207
RightShoulder  5.92988 15.353 25.3046
RightArm  -39.6461 44.8613 7.82996
RightForeArm  -3.58839 0.156917 2.28506
RightHand  -0.984136 4.46594 -11.8381
LeftUpLeg  -47.2884 22.5497 -15.1397
LeftLeg  24.3231 1.14805 0.906761
LeftFoot  -1.20663 -0.467785 5.37592
LeftToes  -1.10052e-010 1.3781e-010 -2.1811e-011
469
root  -41.3681 38.8666 -0.0676048 -146.398 -89.173 169.277
RightUpLeg  -54.5751 -27.87 20.0522
RightLeg  26.7446 -2.41197 -1.55361
RightFoot  -0.576587 0.884937 -9.40582
RightToes  2.91037e-010 0 -3.6325e-017
Spine  59.3731 -3.25465 6.98847
Spine1  11.7792 1.46348 -3.13887
HEad  -37.1417 -6.70306 3.30593
LeftShoulder1  10.7082 -24.6405 -31.8496
LeftArm  -44.7609 -58.8543 1.17932
LeftForeArm  28.3137 -1.0998 -1.69379
LeftHand  -0.244104 0.0205437 5.32207
RightShoulder  5.64751 15.6037 23.3179
RightArm  -44.3915 50.2005 3.02976
RightForeArm  -3.53964 0.71057 2.29953
RightHand  -0.865562 4.47058 -10.4528
LeftUpLeg  -51.9139 22.4401 -16.3757
LeftLeg  27.1046 1.50448 1.17602
LeftFoot  -1.87678 -0.62584 7.67081
LeftToes  -1.10052e-010 1.3781e-010 -2.1811e-011
470
root  -41.4729 38.5546 -0.0423162 -154.201 -89.0564 179.458
RightUpLeg  -58.472 -26.8639 21.4616
RightLeg  29.1763 -2.51829 -1.76112
RightFoot  -1.34907 0.863916 -9.95042
RightToes  2.91037e-010 0 -3.6325e-017
Spine  63.4212 -3.42194 7.14088
Spine1  9.29216 1.55601 -3.15403
HEad  -39.0149 -7.00329 3.68135
LeftShoulder1  10.2819 -25.3782 -29.3578
LeftArm  -53.14 -61.7215 8.72331
LeftForeArm  26.785 -1.42652 -0.895961
LeftHand  -0.244104 0.0205437 5.32207
RightShoulder  5.34973 15.8549 21.2774
RightArm  -49.8709 53.9461 -4.07242
RightForeArm  -4.5443 0.861559 2.47154
RightHand  -0.889578 5.11591 -10.1065
LeftUpLeg  -56.2132 21.9224 -17.3569
LeftLeg  30.2441 1.28036 1.15371
LeftFoot  -2.34658 -0.587239 7.63303
LeftToes  -1.10052e-010 1.3781e-010 -2.1811e-011
471
root  -41.6373 38.2871 -0.0147159 -152.452 -88.8681 -179.965
RightUpLeg  -62.126 -26.2247 22.8625
RightLeg  31.2937 -2.24867 -1.72299
RightFoot  -2.12609 0.812783 -10.224
RightToes  2.91037e-010 0 -3.6325e-017
Spine  66.9237 -3.47576 7.31057
Spine1  7.33458 1.77638 -3.27299
HEad  -40.5279 -7.64983 4.09711
LeftShoulder1  10.1387 -26.3853 -27.6159
LeftArm  -63.2517 -63.4352 19.0511
LeftForeArm  24.7616 -1.93927 -0.232011
LeftHand  -0.244104 0.0205437 5.32207
RightShoulder  4.95486 16.0811 18.7709
RightArm  -56.5541 55.9115 -12.9407
RightForeArm  -5.81402 0.642969 2.45283
RightHand  -0.841488 5.51308 -9.23721
LeftUpLeg  -60.4003 21.8116 -18.8085
LeftLeg  32.8989 0.865471 0.959252
LeftFoot  -2.3059 -0.58285 7.53952
LeftToes  -1.10052e-010 1.3781e-010 -2.1811e-011
472
root  -41.8602 38.0359 0.0482111 -158.2 -88.3884 -171.542
RightUpLeg  -65.7378 -25.1667 24.3575
RightLeg  33.0114 -1.81149 -1.5234
RightFoot  -2.62168 0.776879 -10.3824
RightToes  2.91037e-010 0 -3.6325e-017
Spine  69.5016 -3.59583 7.39819
Spine1  5.94293 2.20046 -4.22042
HEad  -41.4437 -8.31744 4.79392
LeftShoulder1  9.69172 -27.2654 -25.0867
LeftArm  -72.3722 -63.6198 28.3674
LeftForeArm  21.5342 -2.96992 0.393196
LeftHand  -0.244104 0.0205437 5.32207
RightShoulder  4.52186 16.2014 16.2206
RightArm  -63.6283 56.5092 -21.768
RightForeArm  -7.46267 0.385801 2.20185
RightHand  -0.644019 5.30841 -7.28235
LeftUpLeg  -64.7506 22.1197 -20.7643
LeftLeg  35.2139 0.39939 0.665588
LeftFoot  -2.54697 -0.615609 8.19862
LeftToes  -1.10052e-010 1.3781e-010 -2.1811e-011
473
root  -42.1076 37.7824 0.140061 -166.714 -87.7901 -160.103
RightUpLeg  -69.1888 -23.6548 25.8246
RightLeg  34.4319 -1.49919 -1.36778
RightFoot  -2.96079 0.75104 -10.4828
RightToes  2.91037e-010 0 -3.6325e-017
Spine  71.1892 -3.77981 7.30588
Spine1  4.76215 2.5131 -5.67296
HEad  -41.6737 -8.50855 5.70833
LeftShoulder1  8.38934 -27.5516 -20.3489
LeftArm  -78.1377 -62.5394 33.0988
LeftForeArm  17.7148 -4.36269 1.3544
LeftHand  -0.244104 0.0205437 5.32207
RightShoulder  4.0448 16.172 13.6037
RightArm  -69.867 56.53 -28.5226
RightForeArm  -10.3669 0.162536 1.79589
RightHand  -0.551253 5.5001 -6.18967
LeftUpLeg  -69.0368 22.3994 -22.6635
LeftLeg  37.2226 -0.290727 0.13384
LeftFoot  -3.56963 -0.571046 8.70003
LeftToes  -1.10052e-010 1.3781e-010 -2.1811e-011
